<?xml version="1.0" encoding="utf-8"?>
<!-- Generator: Adobe Illustrator 16.0.0, SVG Export Plug-In . SVG Version: 6.00 Build 0)  -->
<!DOCTYPE svg PUBLIC "-//W3C//DTD SVG 1.1//EN" "http://www.w3.org/Graphics/SVG/1.1/DTD/svg11.dtd">
<svg version="1.1" id="Capa_1" xmlns="http://www.w3.org/2000/svg" xmlns:xlink="http://www.w3.org/1999/xlink" x="0px" y="0px"
	 width="44.823px" height="44.829px" viewBox="0 0 44.823 44.829" enable-background="new 0 0 44.823 44.829" xml:space="preserve">
<path fill-rule="evenodd" clip-rule="evenodd" fill="#80D2E6" d="M44.822,11.376c0.025,2.166-0.684,4.051-2.286,5.52
	c-2.771,2.541-6.274,1.471-7.002-2.205c-0.533-2.69,0.274-5.079,2.368-6.913c1.296-1.136,2.816-1.63,4.484-0.854
	c1.677,0.781,2.27,2.279,2.425,4.012C44.824,11.083,44.819,11.229,44.822,11.376"/>
<path fill-rule="evenodd" clip-rule="evenodd" fill="#80D2E6" d="M10.725,7.911c-0.239-1.639,0.003-3.208,0.743-4.684
	c1.74-3.476,5.649-3.944,8.168-0.992c2.107,2.468,2.542,6.596,1,9.462c-1.76,3.266-5.557,3.684-7.995,0.88
	C11.524,11.292,10.952,9.896,10.725,7.911"/>
<path fill-rule="evenodd" clip-rule="evenodd" fill="#80D2E6" d="M34.43,7.402c0.168-1.647-0.141-3.205-0.943-4.648
	c-1.888-3.398-5.813-3.698-8.202-0.641c-1.999,2.557-2.258,6.7-0.594,9.497c1.898,3.188,5.71,3.442,8.025,0.536
	C33.775,10.816,34.289,9.395,34.43,7.402"/>
<path fill-rule="evenodd" clip-rule="evenodd" fill="#80D2E6" d="M0.677,8.537C1.871,6.013,4.648,5.429,6.882,7.09
	c2.627,1.955,3.562,6.306,1.972,9.177c-1.392,2.513-4.029,2.804-6.399,1.174C0.253,15.927-0.781,11.62,0.677,8.537"/>
<path fill="#80D2E6" d="M41.282,21.453l-0.351-0.277c-4.324-3.433-11.399-3.433-15.724,0l-2.394,1.9l-2.393-1.9
	c-4.325-3.433-11.4-3.433-15.724,0l-0.35,0.277c-4.324,3.433-4.324,9.05,0,12.482l10.483,8.321c2.193,1.74,5.094,2.597,7.984,2.571
	c2.892,0.025,5.791-0.831,7.984-2.571l10.483-8.321C45.605,30.503,45.605,24.886,41.282,21.453"/>
</svg>
