<?xml version="1.0" encoding="utf-8"?>
<!-- Generator: Adobe Illustrator 16.0.0, SVG Export Plug-In . SVG Version: 6.00 Build 0)  -->
<!DOCTYPE svg PUBLIC "-//W3C//DTD SVG 1.1//EN" "http://www.w3.org/Graphics/SVG/1.1/DTD/svg11.dtd">
<svg version="1.1" id="Capa_1" xmlns="http://www.w3.org/2000/svg" xmlns:xlink="http://www.w3.org/1999/xlink" x="0px" y="0px"
	 width="174px" height="30px" viewBox="0 0 174 30" enable-background="new 0 0 174 30" xml:space="preserve">
<path fill="#7BD7EB" d="M30,15c0,8.284-6.716,15-15,15S0,23.284,0,15S6.716,0,15,0S30,6.716,30,15"/>
<path fill="#7BD7EB" d="M104,15c0,8.284-6.716,15-15,15s-15-6.716-15-15S80.716,0,89,0S104,6.716,104,15"/>
<path fill="#7BD7EB" d="M174,15c0,8.284-6.716,15-15,15s-15-6.716-15-15s6.716-15,15-15S174,6.716,174,15"/>
<rect fill="none" width="174" height="30"/>
</svg>
