<?xml version="1.0" encoding="utf-8"?>
<!-- Generator: Adobe Illustrator 16.0.0, SVG Export Plug-In . SVG Version: 6.00 Build 0)  -->
<!DOCTYPE svg PUBLIC "-//W3C//DTD SVG 1.1//EN" "http://www.w3.org/Graphics/SVG/1.1/DTD/svg11.dtd">
<svg version="1.1" id="Capa_1" xmlns="http://www.w3.org/2000/svg" xmlns:xlink="http://www.w3.org/1999/xlink" x="0px" y="0px"
	 width="175.714px" height="142.225px" viewBox="0 0 175.714 142.225" enable-background="new 0 0 175.714 142.225"
	 xml:space="preserve">
<g>
	
		<circle fill="none" stroke="#FFFFFF" stroke-width="3" stroke-linecap="round" stroke-linejoin="round" stroke-miterlimit="10" cx="74.806" cy="78.871" r="4.263"/>
	<path fill="none" stroke="#FFFFFF" stroke-width="3" stroke-linecap="round" stroke-linejoin="round" stroke-miterlimit="10" d="
		M78.471,76.808"/>
	<path fill="none" stroke="#FFFFFF" stroke-width="3" stroke-linecap="round" stroke-linejoin="round" stroke-miterlimit="10" d="
		M67.877,62.927c-5.361,5.479-7.656,11.665-7.656,18.932c0,5.383,1.43,10.432,4.406,14.795c1.336,1.957,2.93,3.777,4.74,5.426
		c0,0,5.313,4.104,7.189,8.833c0,0,2.248,6.521,5.416,8.5c0,0,2.02,2.021,8.332,2.021"/>
	<path fill="none" stroke="#FFFFFF" stroke-width="3" stroke-linecap="round" stroke-linejoin="round" stroke-miterlimit="10" d="
		M90.092,116.16c-5.584,0-7.527-3.918-7.375-6.691c0.131-2.348,3.236-2.473,7.547-2.473"/>
	<path fill="none" stroke="#FFFFFF" stroke-width="3" stroke-linecap="round" stroke-linejoin="round" stroke-miterlimit="10" d="
		M57.231,46.16C52.936,48.4,33.215,59.698,30.393,79.58c0,0-0.65,6.979,1.537,9.604c0,0-2,9.375,3.813,14.438
		c0,0,2.25,1.875,4.688,1.688c0,0,2.125,6.688,9.875,6.688c0,0,10.906,0.219,9.875-11.375c0,0-0.916-7.041,1.459-10.166"/>
	<path fill="none" stroke="#FFFFFF" stroke-width="3" stroke-linecap="round" stroke-linejoin="round" stroke-miterlimit="10" d="
		M67.973,63.163"/>
	<path fill="none" stroke="#FFFFFF" stroke-width="3" stroke-linecap="round" stroke-linejoin="round" stroke-miterlimit="10" d="
		M90.223,20.246c-2.549,0-4.766,1.371-5.941,3.398c-1.252-1.38-3.07-2.254-5.102-2.254c-3.441,0-6.281,2.499-6.756,5.746
		c-0.557-0.144-1.139-0.229-1.744-0.229c-3.773,0-6.832,3.001-6.832,6.702c0,1.188,0.318,2.302,0.871,3.27
		c-0.246-0.026-0.494-0.042-0.746-0.042c-3.775,0-6.834,3.001-6.834,6.702c0,3.222,2.318,5.911,5.408,6.554
		c-1.615,1.226-2.658,3.141-2.658,5.298c0,3.701,3.059,6.702,6.834,6.702c1.494,0,2.871-0.475,3.994-1.273
		c-0.076,0.4-0.119,0.811-0.119,1.232c0,3.701,3.059,6.702,6.832,6.702c2.645,0,4.934-1.476,6.068-3.63
		c0.262,3.469,3.205,6.205,6.809,6.205"/>
	
		<circle fill="none" stroke="#FFFFFF" stroke-width="3" stroke-linecap="round" stroke-linejoin="round" stroke-miterlimit="10" cx="105.891" cy="78.871" r="4.263"/>
	<path fill="none" stroke="#FFFFFF" stroke-width="3" stroke-linecap="round" stroke-linejoin="round" stroke-miterlimit="10" d="
		M102.224,76.808"/>
	<path fill="none" stroke="#FFFFFF" stroke-width="3" stroke-linecap="round" stroke-linejoin="round" stroke-miterlimit="10" d="
		M112.82,62.927c5.361,5.479,7.654,11.665,7.654,18.932c0,5.383-1.428,10.432-4.406,14.795c-1.336,1.957-2.928,3.777-4.74,5.426
		c0,0-5.313,4.104-7.188,8.833c0,0-2.25,6.521-5.416,8.5c0,0-2.021,2.021-8.335,2.021"/>
	<path fill="none" stroke="#FFFFFF" stroke-width="3" stroke-linecap="round" stroke-linejoin="round" stroke-miterlimit="10" d="
		M90.604,116.16c5.583,0,7.528-3.918,7.374-6.691c-0.129-2.348-3.236-2.473-7.548-2.473"/>
	<path fill="none" stroke="#FFFFFF" stroke-width="3" stroke-linecap="round" stroke-linejoin="round" stroke-miterlimit="10" d="
		M123.464,46.16c4.295,2.24,24.018,13.538,26.84,33.419c0,0,0.648,6.979-1.539,9.604c0,0,2,9.375-3.813,14.438
		c0,0-2.25,1.875-4.688,1.688c0,0-2.125,6.688-9.875,6.688c0,0-10.906,0.219-9.875-11.375c0,0,0.918-7.041-1.457-10.166"/>
	<path fill="none" stroke="#FFFFFF" stroke-width="3" stroke-linecap="round" stroke-linejoin="round" stroke-miterlimit="10" d="
		M112.724,63.163"/>
	<path fill="none" stroke="#FFFFFF" stroke-width="3" stroke-linecap="round" stroke-linejoin="round" stroke-miterlimit="10" d="
		M90.473,20.246c2.548,0,4.767,1.371,5.94,3.398c1.252-1.38,3.07-2.254,5.102-2.254c3.443,0,6.281,2.499,6.756,5.746
		c0.559-0.144,1.141-0.229,1.744-0.229c3.775,0,6.834,3.001,6.834,6.702c0,1.188-0.318,2.302-0.871,3.27
		c0.244-0.026,0.492-0.042,0.746-0.042c3.773,0,6.832,3.001,6.832,6.702c0,3.222-2.318,5.911-5.408,6.554
		c1.615,1.226,2.658,3.141,2.658,5.298c0,3.701-3.059,6.702-6.832,6.702c-1.494,0-2.871-0.475-3.996-1.273
		c0.076,0.4,0.121,0.811,0.121,1.232c0,3.701-3.059,6.702-6.834,6.702c-2.645,0-4.932-1.476-6.068-3.63
		c-0.26,3.469-3.203,6.205-6.808,6.205"/>
</g>
</svg>
