<?xml version="1.0" encoding="utf-8"?>
<!-- Generator: Adobe Illustrator 16.0.0, SVG Export Plug-In . SVG Version: 6.00 Build 0)  -->
<!DOCTYPE svg PUBLIC "-//W3C//DTD SVG 1.1//EN" "http://www.w3.org/Graphics/SVG/1.1/DTD/svg11.dtd">
<svg version="1.1" id="Capa_1" xmlns="http://www.w3.org/2000/svg" xmlns:xlink="http://www.w3.org/1999/xlink" x="0px" y="0px"
	 width="175.714px" height="142.225px" viewBox="0 0 175.714 142.225" enable-background="new 0 0 175.714 142.225"
	 xml:space="preserve">
<g>
	
		<circle fill="none" stroke="#FFFFFF" stroke-width="3" stroke-linecap="round" stroke-linejoin="round" stroke-miterlimit="10" cx="64.541" cy="59.5" r="4.042"/>
	<path fill="none" stroke="#FFFFFF" stroke-width="3" stroke-linecap="round" stroke-linejoin="round" stroke-miterlimit="10" d="
		M64.541,55.458c0,0-7.688-0.5-8.313,7.5"/>
	<path fill="none" stroke="#FFFFFF" stroke-width="3" stroke-linecap="round" stroke-linejoin="round" stroke-miterlimit="10" d="
		M82.212,102.167v4.334c0,0,0.488,5-8.158,5c0,0-25.806,0.484-33.282-46.507"/>
	<path fill="none" stroke="#FFFFFF" stroke-width="3" stroke-linecap="round" stroke-linejoin="round" stroke-miterlimit="10" d="
		M82.375,12.778c0,0-9.352-1.727-23.057,4.608"/>
	<path fill="none" stroke="#FFFFFF" stroke-width="3" stroke-linecap="round" stroke-linejoin="round" stroke-miterlimit="10" d="
		M57.116,16.954C54.68,17.12,26.34,28.299,21.691,39.581c-4.565,11.073,6.646,41.274,8.909,41.699c0,0,2.667,1.225,5.342-5.195
		l22.454-54.754C58.396,21.331,60.444,16.724,57.116,16.954z"/>
	<path fill="none" stroke="#FFFFFF" stroke-width="3" stroke-linecap="round" stroke-linejoin="round" stroke-miterlimit="10" d="
		M92.173,92.523c0,3.105-4.855,8.266-9.757,8.266s-9.757-5.261-9.757-8.365c0-2.812,4.368-2.878,9.757-2.878
		S92.173,89.914,92.173,92.523z"/>
	<path fill="none" stroke="#FFFFFF" stroke-width="3" stroke-linecap="round" stroke-linejoin="round" stroke-miterlimit="10" d="
		M73.208,112.333c0,0-1,16,9,16v-23.416"/>
	
		<circle fill="none" stroke="#FFFFFF" stroke-width="3" stroke-linecap="round" stroke-linejoin="round" stroke-miterlimit="10" cx="100" cy="59.5" r="4.042"/>
	<path fill="none" stroke="#FFFFFF" stroke-width="3" stroke-linecap="round" stroke-linejoin="round" stroke-miterlimit="10" d="
		M100,55.458c0,0,7.688-0.5,8.313,7.5"/>
	<path fill="none" stroke="#FFFFFF" stroke-width="3" stroke-linecap="round" stroke-linejoin="round" stroke-miterlimit="10" d="
		M82.329,102.167v4.334c0,0-0.488,5,8.158,5c0,0,25.806,0.484,33.282-46.507"/>
	<path fill="none" stroke="#FFFFFF" stroke-width="3" stroke-linecap="round" stroke-linejoin="round" stroke-miterlimit="10" d="
		M82.166,12.778c0,0,9.352-1.727,23.057,4.608"/>
	<path fill="none" stroke="#FFFFFF" stroke-width="3" stroke-linecap="round" stroke-linejoin="round" stroke-miterlimit="10" d="
		M107.425,16.954c2.437,0.166,30.776,11.345,35.425,22.627c4.565,11.073-6.646,41.274-8.909,41.699c0,0-2.667,1.225-5.342-5.195
		l-22.454-54.754C106.145,21.331,104.097,16.724,107.425,16.954z"/>
	<path fill="none" stroke="#FFFFFF" stroke-width="3" stroke-linecap="round" stroke-linejoin="round" stroke-miterlimit="10" d="
		M91.333,112.333c0,0,1,16-9,16v-23.416"/>
</g>
</svg>
