
<!-<?xml version="1.0" encoding="utf-8"?>- Generator: Adobe Illustrator 16.0.0, SVG Export Plug-In . SVG Version: 6.00 Build 0)  -->
<!DOCTYPE svg PUBLIC "-//W3C//DTD SVG 1.1//EN" "http://www.w3.org/Graphics/SVG/1.1/DTD/svg11.dtd">
<svg version="1.1" id="Capa_1" xmlns="http://www.w3.org/2000/svg" xmlns:xlink="http://www.w3.org/1999/xlink" x="0px" y="0px"
	 width="175.714px" height="142.225px" viewBox="0 0 175.714 142.225" enable-background="new 0 0 175.714 142.225"
	 xml:space="preserve">
<path fill="none" stroke="#FFFFFF" stroke-width="3" stroke-linecap="round" stroke-linejoin="round" stroke-miterlimit="10" d="
	M52.038,105.209C39.66,89.667,39.795,70.026,39.795,70.026c1.999-48.5,32.583-46.917,32.583-46.917c10.125-1,14.417,4,14.542,4.209
	c0.125,0.208,0.458,0.291,0.458,0.291l0.167,26.417"/>
<path fill="none" stroke="#FFFFFF" stroke-width="3" stroke-linecap="round" stroke-linejoin="round" stroke-miterlimit="10" d="
	M57.181,27.14c1.016,2.752-6.771,3.104-15.514,4.519c-0.806,0.131-1.591,0.266-2.354,0.401c-7.52,1.334-12.866,2.706-13.791,0.209
	c-0.419-1.129,8.358-14.155,13.809-15.038C44.883,16.33,56.746,25.96,57.181,27.14z"/>
<path fill="none" stroke="#FFFFFF" stroke-width="3" stroke-linecap="round" stroke-linejoin="round" stroke-miterlimit="10" d="
	M39.398,32.227c0,0,6.355,5.383,5.605,11.008"/>
<circle fill="none" stroke="#FFFFFF" stroke-width="3" stroke-linecap="round" stroke-linejoin="round" stroke-miterlimit="10" cx="67.128" cy="65.693" r="3.667"/>
<path fill="none" stroke="#FFFFFF" stroke-width="3" stroke-linecap="round" stroke-linejoin="round" stroke-miterlimit="10" d="
	M67.128,62.026c0,0-5.667-1.667-9,4.667c-3.333,6.333-9.833,12.833-17.833,5.833"/>
<path fill="none" stroke="#FFFFFF" stroke-width="3" stroke-linecap="round" stroke-linejoin="round" stroke-miterlimit="10" d="
	M42.962,87.194c0,0,11.334,4.998,17.667-5.334"/>
<path fill="none" stroke="#FFFFFF" stroke-width="3" stroke-linecap="round" stroke-linejoin="round" stroke-miterlimit="10" d="
	M79.597,59.492c0,0-6.465-14.866-24.416-4.53"/>
<path fill="none" stroke="#FFFFFF" stroke-width="3" stroke-linecap="round" stroke-linejoin="round" stroke-miterlimit="10" d="
	M98.378,81.735c0,3.865-4,10.291-11,10.291c-7.375,0-11-6.551-11-10.416c0-3.5,4.925-3.584,11-3.584S98.378,78.485,98.378,81.735z"
	/>
<path fill="none" stroke="#FFFFFF" stroke-width="3" stroke-linecap="round" stroke-linejoin="round" stroke-miterlimit="10" d="
	M90.253,86.735c0,0-0.5-4.125,3-4.125"/>
<path fill="none" stroke="#FFFFFF" stroke-width="3" stroke-linecap="round" stroke-linejoin="round" stroke-miterlimit="10" d="
	M84.438,86.735c0,0,0.5-4.125-3-4.125"/>
<polyline fill="none" stroke="#FFFFFF" stroke-width="3" stroke-linecap="round" stroke-linejoin="round" stroke-miterlimit="10" points="
	80.809,113.034 74.164,107.475 76.6,119.047 "/>
<polyline fill="none" stroke="#FFFFFF" stroke-width="3" stroke-linecap="round" stroke-linejoin="round" stroke-miterlimit="10" points="
	94.141,113.034 100.788,107.475 98.35,119.047 "/>
<path fill="none" stroke="#FFFFFF" stroke-width="3" stroke-linecap="round" stroke-linejoin="round" stroke-miterlimit="10" d="
	M122.788,105.165c12.34-15.537,12.205-35.138,12.205-35.138c-1.999-48.5-32.583-46.917-32.583-46.917
	c-10.125-1-14.417,4-14.542,4.209c-0.125,0.208-0.458,0.291-0.458,0.291"/>
<path fill="none" stroke="#FFFFFF" stroke-width="3" stroke-linecap="round" stroke-linejoin="round" stroke-miterlimit="10" d="
	M117.607,27.14c-1.016,2.752,6.771,3.104,15.514,4.519c0.806,0.131,1.591,0.266,2.354,0.401c7.52,1.334,12.866,2.706,13.79,0.209
	c0.42-1.129-8.357-14.155-13.808-15.038C129.905,16.33,118.042,25.96,117.607,27.14z"/>
<path fill="none" stroke="#FFFFFF" stroke-width="3" stroke-linecap="round" stroke-linejoin="round" stroke-miterlimit="10" d="
	M135.39,32.227c0,0-6.355,5.383-5.605,11.008"/>
<circle fill="none" stroke="#FFFFFF" stroke-width="3" stroke-linecap="round" stroke-linejoin="round" stroke-miterlimit="10" cx="107.66" cy="65.693" r="3.667"/>
<path fill="none" stroke="#FFFFFF" stroke-width="3" stroke-linecap="round" stroke-linejoin="round" stroke-miterlimit="10" d="
	M107.66,62.026c0,0,5.667-1.667,9,4.667c3.333,6.333,9.833,12.833,17.833,5.833"/>
<path fill="none" stroke="#FFFFFF" stroke-width="3" stroke-linecap="round" stroke-linejoin="round" stroke-miterlimit="10" d="
	M131.826,87.194c0,0-11.334,4.998-17.667-5.334"/>
<path fill="none" stroke="#FFFFFF" stroke-width="3" stroke-linecap="round" stroke-linejoin="round" stroke-miterlimit="10" d="
	M95.191,59.492c0,0,6.465-14.866,24.416-4.53"/>
<path fill="none" stroke="#FFFFFF" stroke-width="3" stroke-linecap="round" stroke-linejoin="round" stroke-miterlimit="10" d="
	M75.542,81.79c-9.882,2.07-19.215,8.07-23.068,23.07c0,0-2.479,11.166,4.752,16.5c0,0,8.226,6.25,16.588,1.375
	c0,0,2.605-1.541,3.245-2.625s1.56-9.5,10.51-9.5"/>
<path fill="none" stroke="#FFFFFF" stroke-width="3" stroke-linecap="round" stroke-linejoin="round" stroke-miterlimit="10" d="
	M99.374,81.79c9.882,2.07,19.215,8.07,23.068,23.07c0,0,2.48,11.166-4.752,16.5c0,0-8.226,6.25-16.588,1.375
	c0,0-2.605-1.541-3.245-2.625s-1.56-9.5-10.51-9.5V92.026"/>
<path fill="none" stroke="#FFFFFF" stroke-width="3" stroke-linecap="round" stroke-linejoin="round" stroke-miterlimit="10" d="
	M76.994,120.397c0,0,9.938,3.838,21.25-0.162"/>
<circle fill="#FFFFFF" cx="73.62" cy="95.059" r="2.175"/>
<circle fill="#FFFFFF" cx="63.568" cy="101.209" r="2.175"/>
<circle fill="#FFFFFF" cx="64.018" cy="110.661" r="2.175"/>
<circle fill="#FFFFFF" cx="100.418" cy="95.059" r="2.175"/>
<circle fill="#FFFFFF" cx="110.469" cy="101.209" r="2.175"/>
<circle fill="#FFFFFF" cx="110.919" cy="110.661" r="2.174"/>
</svg>
