<?xml version="1.0" encoding="utf-8"?>
<!-- Generator: Adobe Illustrator 16.0.0, SVG Export Plug-In . SVG Version: 6.00 Build 0)  -->
<!DOCTYPE svg PUBLIC "-//W3C//DTD SVG 1.1//EN" "http://www.w3.org/Graphics/SVG/1.1/DTD/svg11.dtd">
<svg version="1.1" id="Capa_1" xmlns="http://www.w3.org/2000/svg" xmlns:xlink="http://www.w3.org/1999/xlink" x="0px" y="0px"
	 width="369.9px" height="411.856px" viewBox="0 0 369.9 411.856" enable-background="new 0 0 369.9 411.856" xml:space="preserve">
<g>
	<defs>
		<rect id="SVGID_1_" width="369.9" height="411.856"/>
	</defs>
	<clipPath id="SVGID_2_">
		<use xlink:href="#SVGID_1_"  overflow="visible"/>
	</clipPath>
	<path clip-path="url(#SVGID_2_)" fill="#7BD7EB" d="M185.925,0C86.517,0,5.933,80.583,5.933,179.989
		c0,99.407,80.584,179.991,179.992,179.991c99.403,0,179.987-80.584,179.987-179.991C365.912,80.583,285.328,0,185.925,0"/>
	<path clip-path="url(#SVGID_2_)" fill="#7BD7EB" d="M8.985,307.64l0.671,0.299c0.758,0.424,1.216,0.769,1.371,1.036
		c0.345,0.589,0.185,1.537-0.48,2.845c-0.422,0.806-0.831,1.327-1.231,1.56c-0.399,0.236-0.807,0.3-1.223,0.2
		c-0.417-0.101-0.829-0.262-1.238-0.481c-0.41-0.222-0.801-0.434-1.175-0.636c-0.373-0.201-0.997-0.699-1.867-1.491
		c-0.871-0.791-1.572-1.639-2.099-2.543c-0.528-0.902-0.943-1.885-1.245-2.946c-0.3-1.062-0.457-2.245-0.469-3.553
		c-0.012-1.307,0.159-2.588,0.512-3.84c0.351-1.251,1.013-2.501,1.983-3.743c0.969-1.241,2.197-2.298,3.679-3.164
		c1.484-0.868,2.974-1.407,4.471-1.617c1.495-0.212,2.864-0.163,4.103,0.145c1.239,0.31,2.415,0.802,3.526,1.48
		c2.115,1.263,3.724,2.835,4.824,4.718c0.524,0.894,0.915,1.882,1.179,2.966c0.264,1.083,0.392,1.948,0.385,2.588l0.001,0.92
		c-0.01,0.463-0.025,0.829-0.047,1.098c-0.11,0.728-0.417,1.239-0.921,1.534s-1.148,0.403-1.933,0.325
		c-1.461-0.141-2.364-0.508-2.708-1.094c-0.2-0.344-0.275-0.951-0.223-1.824c0.18-1.176-0.12-2.429-0.897-3.761
		c-0.723-1.236-1.863-2.204-3.418-2.9c-0.753-0.327-1.621-0.456-2.603-0.394c-0.984,0.064-1.955,0.378-2.915,0.939
		s-1.71,1.254-2.248,2.079s-0.854,1.659-0.947,2.506c-0.158,1.649,0.13,3.103,0.864,4.355c0.344,0.59,0.744,1.102,1.203,1.536
		C8.328,307.216,8.699,307.502,8.985,307.64"/>
	<path clip-path="url(#SVGID_2_)" fill="#7BD7EB" d="M35.096,313.405c1.983,2.586,2.771,5.55,2.362,8.89
		c-0.41,3.34-1.999,6.07-4.769,8.195c-2.772,2.125-5.828,3.027-9.171,2.701c-3.343-0.322-6.034-1.813-8.071-4.468
		c-2.038-2.657-2.809-5.654-2.313-8.991c0.496-3.335,2.071-6.023,4.728-8.061c1.451-1.112,3.011-1.893,4.68-2.339
		c1.67-0.446,3.268-0.562,4.795-0.346c1.526,0.216,2.97,0.705,4.331,1.468C33.028,311.216,34.171,312.197,35.096,313.405
		 M21.552,316.211c-1.556,1.194-2.434,2.665-2.632,4.414c-0.201,1.749,0.176,3.243,1.128,4.485c0.952,1.24,2.282,1.998,3.99,2.271
		c1.708,0.271,3.357-0.2,4.947-1.423c1.59-1.219,2.481-2.697,2.672-4.44c0.19-1.743-0.19-3.236-1.142-4.477
		c-0.952-1.241-2.294-1.988-4.028-2.239C24.752,314.548,23.108,315.021,21.552,316.211"/>
	<path clip-path="url(#SVGID_2_)" fill="#7BD7EB" d="M53.734,336.226c0.42-0.122,0.826-0.083,1.214,0.122
		c0.389,0.203,0.805,0.528,1.247,0.974c0.443,0.444,0.761,0.843,0.955,1.193c0.193,0.354,0.301,0.648,0.325,0.891
		c0.021,0.241-0.045,0.502-0.202,0.78c-0.157,0.345-0.508,0.786-1.056,1.33l-13.006,12.926c-0.376,0.373-0.661,0.634-0.857,0.778
		c-0.195,0.148-0.471,0.277-0.829,0.385c-0.64,0.198-1.457-0.2-2.451-1.2c-0.605-0.609-0.977-1.076-1.116-1.406
		c-0.14-0.328-0.186-0.668-0.138-1.028c1.194-8.173,1.958-13.528,2.294-16.065l-7.711,7.663c-0.374,0.37-0.66,0.632-0.855,0.778
		c-0.196,0.148-0.472,0.275-0.831,0.383c-0.639,0.2-1.455-0.197-2.448-1.198c-0.964-0.971-1.343-1.772-1.138-2.41
		c0.11-0.358,0.247-0.642,0.412-0.852c0.163-0.21,0.425-0.492,0.784-0.851l13.079-12.996c0.593-0.591,1.1-0.948,1.522-1.07
		c0.421-0.124,0.825-0.083,1.215,0.12c0.388,0.205,0.816,0.542,1.281,1.011c0.466,0.468,0.791,0.883,0.977,1.239
		c0.186,0.359,0.279,0.648,0.278,0.866c0.015,0.109-0.009,0.492-0.074,1.146c-1.209,7.751-1.979,12.896-2.315,15.434l7.923-7.87
		C52.806,336.708,53.313,336.351,53.734,336.226"/>
	<path clip-path="url(#SVGID_2_)" fill="#7BD7EB" d="M53.261,358.938l7.965,6.333c0.397,0.315,0.684,0.564,0.862,0.749
		c0.178,0.183,0.34,0.447,0.49,0.79c0.273,0.611-0.029,1.47-0.906,2.572c-0.96,1.206-1.841,1.66-2.643,1.361
		c-0.376-0.132-0.866-0.437-1.469-0.915l-10.24-8.146c-1.207-0.958-1.653-1.848-1.34-2.669c0.117-0.355,0.414-0.839,0.894-1.439
		l11.436-14.379c0.698-0.879,1.339-1.35,1.919-1.406c0.581-0.061,1.329,0.273,2.243,1.003l10.189,8.1
		c0.397,0.317,0.684,0.566,0.861,0.75c0.177,0.185,0.341,0.446,0.49,0.79c0.274,0.613-0.028,1.472-0.906,2.572
		c-0.96,1.208-1.84,1.66-2.642,1.36c-0.376-0.13-0.866-0.434-1.469-0.915l-7.939-6.313l-2.077,2.612l5.12,4.072
		c0.397,0.315,0.683,0.564,0.861,0.749c0.177,0.182,0.341,0.446,0.491,0.79c0.273,0.61-0.029,1.469-0.906,2.572
		c-0.96,1.207-1.849,1.653-2.67,1.339c-0.376-0.129-0.864-0.436-1.468-0.915l-5.068-4.03L53.261,358.938z"/>
	<path clip-path="url(#SVGID_2_)" fill="#7BD7EB" d="M79.846,376.979l0.731-0.048c0.868,0.023,1.434,0.115,1.696,0.278
		c0.578,0.363,0.878,1.278,0.898,2.744c0.002,0.91-0.118,1.559-0.364,1.954c-0.245,0.391-0.575,0.64-0.991,0.743
		c-0.414,0.104-0.855,0.154-1.319,0.15c-0.465-0.005-0.91-0.01-1.335-0.016c-0.425-0.005-1.207-0.155-2.347-0.452
		c-1.139-0.297-2.154-0.721-3.041-1.274c-0.887-0.556-1.711-1.23-2.472-2.03c-0.761-0.801-1.45-1.775-2.067-2.928
		c-0.619-1.151-1.064-2.363-1.334-3.637c-0.27-1.272-0.266-2.682,0.015-4.236c0.281-1.551,0.876-3.056,1.786-4.513
		c0.91-1.457,1.978-2.628,3.204-3.512c1.226-0.883,2.461-1.476,3.702-1.78c1.241-0.301,2.509-0.412,3.808-0.329
		c2.461,0.136,4.617,0.779,6.466,1.935c0.879,0.548,1.686,1.241,2.424,2.075c0.736,0.84,1.251,1.542,1.544,2.113l0.428,0.815
		c0.207,0.414,0.364,0.746,0.47,0.992c0.241,0.696,0.206,1.29-0.103,1.786c-0.309,0.495-0.83,0.893-1.56,1.189
		c-1.359,0.553-2.328,0.649-2.906,0.289c-0.337-0.21-0.685-0.713-1.044-1.51c-0.389-1.125-1.237-2.097-2.545-2.911
		c-1.215-0.758-2.674-1.086-4.376-0.98c-0.817,0.063-1.645,0.352-2.485,0.864c-0.841,0.514-1.556,1.243-2.145,2.185
		c-0.589,0.945-0.93,1.906-1.022,2.889c-0.093,0.979,0.016,1.866,0.327,2.657c0.626,1.535,1.556,2.685,2.79,3.454
		c0.579,0.362,1.172,0.63,1.779,0.801C79.066,376.909,79.528,376.992,79.846,376.979"/>
	<path clip-path="url(#SVGID_2_)" fill="#7BD7EB" d="M96.686,366.052l16.652,7.761c0.638,0.298,1.073,0.591,1.302,0.881
		c0.23,0.288,0.32,0.615,0.272,0.98c-0.05,0.367-0.195,0.811-0.437,1.328c-0.242,0.521-0.485,0.91-0.729,1.173
		c-0.245,0.264-0.513,0.398-0.81,0.408c-0.442,0.012-0.993-0.135-1.652-0.441l-5.72-2.667l-7.02,15.065
		c-0.214,0.459-0.387,0.79-0.519,0.995c-0.133,0.208-0.341,0.42-0.626,0.639c-0.284,0.223-0.645,0.303-1.08,0.244
		c-0.435-0.057-0.962-0.229-1.581-0.518c-0.618-0.288-1.085-0.578-1.399-0.869c-0.313-0.292-0.477-0.618-0.492-0.978
		c-0.015-0.358,0.016-0.66,0.093-0.905c0.077-0.242,0.223-0.596,0.437-1.054l7.006-15.033l-5.751-2.682
		c-0.639-0.297-1.072-0.59-1.303-0.88c-0.229-0.288-0.32-0.615-0.271-0.981c0.048-0.366,0.195-0.81,0.437-1.327
		c0.242-0.52,0.484-0.91,0.728-1.173c0.244-0.264,0.514-0.4,0.809-0.408C95.476,365.599,96.026,365.746,96.686,366.052"/>
	<path clip-path="url(#SVGID_2_)" fill="#7BD7EB" d="M125.07,379.766l2.438,20.337c0.11,0.83,0.105,1.423-0.017,1.774
		c-0.259,0.752-1.095,1.22-2.511,1.409c-0.83,0.109-1.448,0.094-1.854-0.044c-0.406-0.142-0.708-0.349-0.903-0.624
		c-0.197-0.28-0.315-0.54-0.358-0.788c-0.044-0.248-0.098-0.617-0.162-1.105l-0.464-3.932l-8.655-2.977l-2.786,2.813
		c-0.351,0.346-0.616,0.593-0.795,0.741c-0.18,0.146-0.433,0.275-0.762,0.384c-0.328,0.109-0.696,0.092-1.101-0.046
		c-0.407-0.14-0.904-0.509-1.489-1.106c-1.008-1-1.383-1.874-1.125-2.623c0.122-0.354,0.482-0.824,1.08-1.409l14.444-14.565
		c0.393-0.4,0.874-0.666,1.444-0.797c0.569-0.128,1.114-0.106,1.635,0.074C124.254,377.668,124.9,378.497,125.07,379.766
		 M119.959,386.394l-3.535,3.57l4.156,1.429L119.959,386.394z"/>
	<path clip-path="url(#SVGID_2_)" fill="#7BD7EB" d="M151.103,385.626c0.282-0.334,0.642-0.524,1.079-0.57
		c0.435-0.046,0.962-0.005,1.576,0.122c0.616,0.124,1.101,0.28,1.457,0.466c0.355,0.186,0.608,0.373,0.762,0.562
		c0.151,0.189,0.24,0.442,0.265,0.764c0.058,0.371,0.01,0.935-0.144,1.688l-3.684,17.963c-0.107,0.52-0.2,0.896-0.281,1.125
		c-0.082,0.231-0.242,0.488-0.48,0.777c-0.422,0.521-1.323,0.64-2.704,0.356c-0.841-0.173-1.411-0.356-1.707-0.553
		c-0.298-0.196-0.526-0.457-0.684-0.781c-3.527-7.468-5.854-12.352-6.98-14.65l-2.183,10.646c-0.105,0.52-0.2,0.896-0.281,1.125
		c-0.08,0.231-0.24,0.488-0.48,0.776c-0.422,0.522-1.323,0.641-2.704,0.358c-1.338-0.275-2.098-0.733-2.28-1.378
		c-0.108-0.36-0.149-0.672-0.128-0.939c0.02-0.264,0.081-0.646,0.183-1.14l3.704-18.063c0.167-0.82,0.393-1.396,0.675-1.732
		c0.282-0.335,0.642-0.525,1.079-0.571c0.435-0.046,0.978-0.003,1.626,0.13c0.646,0.132,1.147,0.298,1.5,0.494
		c0.353,0.195,0.59,0.385,0.71,0.566c0.073,0.083,0.264,0.415,0.573,0.993c3.281,7.129,5.486,11.84,6.612,14.141l2.243-10.941
		C150.595,386.54,150.82,385.963,151.103,385.626"/>
	<path clip-path="url(#SVGID_2_)" fill="#7BD7EB" d="M161.876,386.245l6.09,0.52c3.184,0.251,5.893,1.622,8.126,4.105
		c2.233,2.487,3.218,5.405,2.951,8.755c-0.266,3.349-1.675,6.126-4.226,8.332c-2.55,2.204-5.505,3.176-8.865,2.907l-6.027-0.479
		c-1.34-0.106-2.153-0.448-2.438-1.021c-0.227-0.481-0.302-1.195-0.227-2.141l1.454-18.313c0.043-0.526,0.089-0.909,0.142-1.148
		c0.052-0.238,0.179-0.518,0.38-0.832C159.592,386.362,160.471,386.134,161.876,386.245 M170.937,403.62
		c1.367-1.073,2.122-2.5,2.262-4.276c0.142-1.78-0.36-3.317-1.506-4.612c-1.145-1.296-2.552-2.009-4.221-2.141l-3.162-0.251
		l-0.989,12.449l3.195,0.255C168.097,405.169,169.57,404.694,170.937,403.62"/>
	<path clip-path="url(#SVGID_2_)" fill="#7BD7EB" d="M193.087,386.963c3.255-0.148,6.137,0.897,8.644,3.139
		c2.509,2.245,3.844,5.11,4.005,8.599c0.16,3.485-0.847,6.51-3.02,9.07c-2.176,2.559-4.937,3.916-8.282,4.07
		c-3.343,0.155-6.243-0.925-8.697-3.236c-2.457-2.312-3.76-5.14-3.917-8.485c-0.084-1.826,0.167-3.552,0.754-5.176
		c0.585-1.628,1.403-3.003,2.455-4.134c1.05-1.129,2.275-2.034,3.68-2.718C190.107,387.412,191.566,387.034,193.087,386.963
		 M187.654,399.683c0.092,1.959,0.798,3.521,2.117,4.685c1.323,1.161,2.765,1.708,4.326,1.633c1.563-0.071,2.944-0.73,4.145-1.977
		c1.197-1.244,1.752-2.869,1.659-4.872s-0.801-3.579-2.12-4.732c-1.32-1.15-2.765-1.691-4.326-1.618
		c-1.563,0.071-2.941,0.747-4.14,2.027C188.117,396.107,187.563,397.727,187.654,399.683"/>
	<path clip-path="url(#SVGID_2_)" fill="#7BD7EB" d="M230.35,382.788c0.1-0.359,0.339-0.649,0.72-0.872
		c0.378-0.219,0.88-0.398,1.505-0.538c0.622-0.139,1.129-0.193,1.518-0.169c0.391,0.025,0.698,0.093,0.926,0.2
		s0.426,0.288,0.597,0.544c0.188,0.342,0.366,0.889,0.534,1.643l3.992,17.896c0.109,0.495,0.178,0.868,0.199,1.124
		c0.022,0.254-0.015,0.563-0.116,0.922c-0.172,0.648-0.945,1.125-2.321,1.433c-1.505,0.337-2.476,0.135-2.91-0.603
		c-0.21-0.337-0.4-0.883-0.568-1.634l-1.459-6.548l-8.546,1.906l1.466,6.581c0.11,0.492,0.179,0.867,0.2,1.122
		c0.024,0.256-0.015,0.562-0.115,0.924c-0.173,0.646-0.946,1.125-2.319,1.431c-1.505,0.334-2.477,0.134-2.911-0.603
		c-0.212-0.338-0.402-0.882-0.568-1.636l-3.99-17.897c-0.111-0.494-0.179-0.867-0.201-1.122c-0.023-0.254,0.016-0.563,0.114-0.923
		c0.172-0.648,0.945-1.124,2.321-1.434c1.505-0.335,2.487-0.137,2.944,0.598c0.188,0.341,0.366,0.889,0.534,1.64l1.469,6.579
		l8.546-1.907l-1.476-6.61c-0.11-0.492-0.178-0.867-0.2-1.121C230.208,383.456,230.248,383.149,230.35,382.788"/>
	<path clip-path="url(#SVGID_2_)" fill="#7BD7EB" d="M252.914,375.624c0.087-0.404,0.306-0.74,0.655-1.007
		c0.352-0.264,0.821-0.505,1.411-0.717c0.592-0.21,1.08-0.327,1.473-0.35c0.39-0.021,0.703,0.007,0.942,0.086
		c0.238,0.078,0.45,0.246,0.636,0.507c0.252,0.308,0.508,0.825,0.769,1.55l3.359,9.397c0.98,2.735,1.02,5.528,0.12,8.378
		c-0.452,1.354-1.212,2.593-2.286,3.713c-1.071,1.12-2.4,1.965-3.989,2.533c-1.585,0.566-3.146,0.751-4.679,0.551
		c-1.534-0.199-2.899-0.694-4.094-1.482c-2.465-1.597-4.197-3.787-5.191-6.565l-3.351-9.364c-0.176-0.499-0.295-0.872-0.347-1.121
		c-0.057-0.249-0.057-0.56,0-0.931c0.055-0.368,0.256-0.688,0.605-0.954c0.352-0.266,0.855-0.518,1.52-0.754
		c0.664-0.238,1.215-0.365,1.655-0.38c0.437-0.018,0.785,0.103,1.042,0.363c0.419,0.388,0.777,0.995,1.072,1.825l3.34,9.334
		c0.454,1.267,1.194,2.356,2.226,3.276c0.517,0.467,1.15,0.767,1.9,0.897c0.749,0.13,1.547,0.042,2.397-0.263
		c1.514-0.541,2.445-1.504,2.791-2.891c0.345-1.389,0.255-2.817-0.272-4.29l-3.403-9.521
		C252.925,376.637,252.823,376.03,252.914,375.624"/>
	<path clip-path="url(#SVGID_2_)" fill="#7BD7EB" d="M273.346,385.762l9.107-4.538c0.455-0.226,0.802-0.382,1.041-0.465
		c0.243-0.083,0.552-0.12,0.925-0.107c0.671,0.008,1.321,0.645,1.947,1.907c0.69,1.382,0.728,2.369,0.116,2.972
		c-0.277,0.283-0.761,0.599-1.449,0.941l-11.711,5.836c-1.381,0.689-2.374,0.718-2.985,0.086c-0.273-0.257-0.586-0.729-0.929-1.42
		l-8.193-16.441c-0.503-1.005-0.656-1.785-0.464-2.335c0.192-0.551,0.813-1.088,1.856-1.609l11.653-5.805
		c0.45-0.228,0.8-0.383,1.041-0.466s0.549-0.12,0.925-0.109c0.668,0.009,1.317,0.648,1.946,1.908
		c0.688,1.381,0.728,2.37,0.115,2.971c-0.275,0.284-0.76,0.601-1.449,0.944l-9.078,4.522l1.488,2.987l5.854-2.918
		c0.454-0.225,0.8-0.38,1.042-0.463c0.242-0.085,0.551-0.12,0.925-0.11c0.67,0.012,1.32,0.648,1.947,1.908
		c0.688,1.38,0.717,2.376,0.085,2.985c-0.277,0.286-0.758,0.601-1.449,0.944l-5.797,2.889L273.346,385.762z"/>
	<path clip-path="url(#SVGID_2_)" fill="#7BD7EB" d="M293.837,375.613l7.572-4.843c0.612-0.391,1.103-0.605,1.47-0.645
		s0.692,0.062,0.975,0.3c0.283,0.237,0.581,0.601,0.896,1.092c0.314,0.493,0.52,0.917,0.618,1.273
		c0.098,0.355,0.069,0.66-0.083,0.914c-0.232,0.412-0.656,0.813-1.27,1.206l-10.021,6.404c-1.3,0.831-2.287,0.965-2.96,0.402
		c-0.301-0.226-0.659-0.663-1.074-1.313l-9.894-15.479c-0.274-0.426-0.465-0.755-0.574-0.986c-0.107-0.229-0.177-0.535-0.207-0.908
		c-0.06-0.666,0.504-1.381,1.692-2.139c1.299-0.83,2.288-0.979,2.968-0.447c0.295,0.256,0.65,0.71,1.065,1.357L293.837,375.613z"/>
	<path clip-path="url(#SVGID_2_)" fill="#7BD7EB" d="M311.222,363.526l7.041-5.584c0.568-0.451,1.034-0.717,1.396-0.793
		c0.362-0.075,0.694-0.009,1,0.198c0.304,0.207,0.638,0.542,1,0.998c0.365,0.456,0.611,0.858,0.745,1.203
		c0.131,0.344,0.136,0.65,0.011,0.917c-0.19,0.434-0.57,0.876-1.14,1.329l-9.321,7.39c-1.208,0.959-2.173,1.193-2.901,0.701
		c-0.322-0.193-0.725-0.594-1.203-1.198l-11.415-14.393c-0.316-0.397-0.537-0.706-0.671-0.924c-0.129-0.221-0.23-0.513-0.297-0.882
		c-0.128-0.656,0.358-1.425,1.466-2.3c1.207-0.959,2.178-1.208,2.907-0.747c0.318,0.227,0.718,0.642,1.196,1.244L311.222,363.526z"
		/>
	<path clip-path="url(#SVGID_2_)" fill="#7BD7EB" d="M311.689,341.794c-0.344-0.373-0.591-0.662-0.737-0.873
		c-0.148-0.208-0.269-0.492-0.362-0.855c-0.177-0.647,0.253-1.447,1.29-2.403c1.134-1.045,2.081-1.364,2.844-0.959
		c0.335,0.2,0.765,0.583,1.286,1.151l12.453,13.507c0.358,0.387,0.607,0.683,0.747,0.883c0.141,0.2,0.258,0.482,0.353,0.844
		c0.176,0.647-0.254,1.447-1.291,2.403c-1.134,1.044-2.08,1.352-2.844,0.913c-0.335-0.169-0.765-0.537-1.286-1.104L311.689,341.794z
		"/>
	<path clip-path="url(#SVGID_2_)" fill="#7BD7EB" d="M317.139,332.891l12.388-13.564c0.474-0.52,0.884-0.847,1.229-0.98
		c0.347-0.132,0.686-0.12,1.02,0.037c0.335,0.156,0.715,0.429,1.136,0.814c0.424,0.386,0.724,0.734,0.902,1.046
		c0.177,0.313,0.225,0.61,0.144,0.894c-0.119,0.426-0.425,0.908-0.917,1.445l-4.255,4.661l12.271,11.208
		c0.376,0.34,0.642,0.604,0.798,0.793c0.156,0.188,0.297,0.451,0.422,0.788c0.124,0.338,0.091,0.705-0.092,1.103
		c-0.186,0.4-0.509,0.85-0.967,1.354c-0.461,0.504-0.879,0.86-1.252,1.072c-0.37,0.214-0.729,0.272-1.077,0.179
		c-0.347-0.092-0.625-0.212-0.836-0.36c-0.21-0.145-0.5-0.389-0.876-0.733l-12.246-11.185l-4.277,4.684
		c-0.477,0.521-0.886,0.849-1.232,0.979c-0.343,0.134-0.684,0.122-1.018-0.035c-0.334-0.156-0.712-0.428-1.136-0.813
		c-0.423-0.388-0.725-0.736-0.901-1.046c-0.178-0.313-0.226-0.611-0.146-0.896C316.342,333.911,316.647,333.428,317.139,332.891"/>
	<path clip-path="url(#SVGID_2_)" fill="#7BD7EB" d="M338.738,309.918l20.13,3.789c0.825,0.145,1.387,0.326,1.687,0.551
		c0.639,0.469,0.834,1.41,0.588,2.815c-0.143,0.825-0.344,1.41-0.599,1.756c-0.256,0.347-0.544,0.569-0.867,0.675
		c-0.325,0.103-0.61,0.137-0.859,0.104c-0.249-0.034-0.615-0.092-1.103-0.177l-3.89-0.74l-5.442,7.36l1.85,3.5
		c0.224,0.439,0.378,0.767,0.466,0.981c0.087,0.218,0.134,0.498,0.137,0.842c0.005,0.349-0.12,0.69-0.375,1.036
		c-0.255,0.347-0.758,0.708-1.502,1.089c-1.257,0.661-2.204,0.756-2.84,0.283c-0.302-0.222-0.644-0.706-1.021-1.451l-9.549-18.155
		c-0.262-0.497-0.371-1.035-0.325-1.618c0.05-0.581,0.236-1.094,0.563-1.538C336.493,310.065,337.477,309.699,338.738,309.918
		 M343.523,316.786l2.344,4.443l2.613-3.533L343.523,316.786z"/>
	<path clip-path="url(#SVGID_2_)" fill="#7BD7EB" d="M361.325,310.797c-0.896,0.145-1.589,0.074-2.074-0.209
		c-0.487-0.28-0.893-1.062-1.217-2.347c-0.184-0.742-0.118-1.378,0.19-1.913c0.31-0.532,1.217-1,2.723-1.4
		c0.477-0.078,1.01-0.281,1.59-0.606c0.583-0.323,0.996-0.696,1.239-1.116c1.026-1.771,0.817-3.076-0.634-3.915
		c-0.437-0.256-0.944-0.223-1.521,0.09c-0.578,0.315-1.144,0.795-1.696,1.442c-0.553,0.648-1.219,1.305-2,1.971
		c-0.782,0.668-1.584,1.249-2.405,1.74c-0.817,0.493-1.801,0.731-2.952,0.714c-1.146-0.015-2.332-0.378-3.552-1.085
		c-1.677-0.972-2.778-2.442-3.302-4.416c-0.526-1.97-0.163-4.033,1.083-6.188c0.664-1.144,1.415-2.103,2.258-2.874
		c0.842-0.773,1.521-1.249,2.036-1.437l0.957-0.398c0.893-0.272,1.532-0.295,1.915-0.075c0.38,0.22,0.771,0.752,1.173,1.596
		c0.579,1.201,0.668,2.145,0.27,2.83c-0.23,0.402-0.711,0.786-1.435,1.156c-0.069,0.037-0.227,0.089-0.474,0.163
		c-0.246,0.074-0.456,0.149-0.629,0.228c-0.48,0.256-0.899,0.694-1.26,1.314c-0.358,0.62-0.509,1.219-0.45,1.799
		c0.06,0.582,0.35,1.024,0.873,1.329c0.524,0.303,1.09,0.306,1.693,0.008c0.606-0.298,1.175-0.776,1.71-1.435
		c0.535-0.657,1.169-1.347,1.904-2.066c0.735-0.718,1.484-1.34,2.247-1.866c0.763-0.524,1.711-0.786,2.84-0.781
		c1.129,0.008,2.314,0.368,3.551,1.086c1.241,0.719,2.188,1.598,2.845,2.642c0.654,1.042,1.01,2.111,1.061,3.209
		c0.115,2.13-0.337,4.071-1.351,5.825c-0.521,0.894-1.122,1.68-1.806,2.353c-0.682,0.673-1.33,1.164-1.939,1.474
		c-1.196,0.656-2.194,1.018-2.999,1.088L361.325,310.797z"/>
	<path clip-path="url(#SVGID_2_)" fill="#E21376" d="M207.735,234.792c0.212-14.073-18.571-16.35-19.413-1.35h-1.5
		c-1.167-16-20.334-12.502-19.494,0.299c0.483,7.36,12.161,23.917,19.327,26.741l-0.166,0.744
		C192.323,257.406,207.625,242.169,207.735,234.792"/>
	<path clip-path="url(#SVGID_2_)" fill="none" stroke="#E21376" stroke-miterlimit="10" d="M207.735,234.792
		c0.212-14.073-18.571-16.35-19.413-1.35h-1.5c-1.167-16-20.334-12.502-19.494,0.299c0.483,7.36,12.161,23.917,19.327,26.741
		l-0.166,0.744C192.323,257.406,207.625,242.169,207.735,234.792z"/>
	<path clip-path="url(#SVGID_2_)" fill="#FFFFFF" d="M148.358,164.767c-5.155,0-9.349,4.194-9.349,9.349
		c0,5.156,4.194,9.351,9.349,9.351c5.155,0,9.349-4.195,9.349-9.351C157.707,168.961,153.513,164.767,148.358,164.767"/>
	<path clip-path="url(#SVGID_2_)" fill="#FFFFFF" d="M148.358,163.767c-5.706,0-10.349,4.643-10.349,10.349
		c0,5.707,4.643,10.351,10.349,10.351s10.349-4.644,10.349-10.351C158.707,168.41,154.064,163.767,148.358,163.767 M148.358,183.467
		c-5.155,0-9.349-4.195-9.349-9.351c0-5.155,4.194-9.349,9.349-9.349c5.155,0,9.349,4.194,9.349,9.349
		C157.707,179.271,153.513,183.467,148.358,183.467"/>
	<path clip-path="url(#SVGID_2_)" fill="#FFFFFF" d="M146.155,231.763c1.292-1.704,2.66-3.281,4.107-4.952
		c4.067-4.695,8.677-10.019,12.915-19.821c3.051-7.049,5.371-11.702,7.234-15.439c4.646-9.319,6.212-12.458,7.48-29.69
		c1.335-18.135,6.881-20.5,8.03-20.796c-0.128-0.032-0.203-0.041-0.211-0.042c0.076,0.007,0.118,0,0.119,0l-0.191-4.98
		c-2.485,0.218-11.057,2.671-12.732,25.451c-1.197,16.249-2.419,18.702-6.968,27.826c-1.891,3.792-4.244,8.51-7.349,15.684
		c-3.933,9.1-8.087,13.896-12.105,18.533c-1.502,1.735-2.921,3.373-4.311,5.206c-1.231,1.623-2.271,3.187-3.203,4.805l4.226,2.576
		c-0.322,0.528-0.615,1.072-0.894,1.622l0.057,0.03C143.412,235.7,144.619,233.789,146.155,231.763"/>
	<path clip-path="url(#SVGID_2_)" fill="#FFFFFF" d="M186.206,136.026c-0.071-0.003-0.176-0.005-0.309,0
		c0.09,0.002,0.189,0.007,0.309,0.018V136.026z"/>
	<path clip-path="url(#SVGID_2_)" fill="#FFFFFF" d="M161.079,275.27c0.009,0.021,0.866,1.711,3.508,3.523
		c8.026-0.856,14.836-4.515,19.398-10.479c0.072-0.088,0.962-1.189,1.935-3.007c-0.946-1.771-1.983-4.242-2.405-7.128l2.406-0.352
		l-2.541-0.371c-0.644,4.408-3.24,7.661-3.313,7.752c-4.397,5.746-11.03,8.783-19.184,8.783c-6.949,0-11.621-3.458-14.318-6.359
		c-4.772-5.133-7.4-12.924-6.859-20.331c0.255-3.46,1.132-6.663,2.596-9.556c0.278-0.551,0.571-1.096,0.893-1.622l-4.226-2.577
		l-0.044-0.027c-2.394,3.929-3.848,8.566-4.205,13.416c-0.262,3.583,0.089,7.184,0.969,10.614c4.498,4.311,7.932,7.077,8.011,7.141
		l-2.964,3.705c0.674,0.926,1.394,1.811,2.167,2.643c4.005,4.309,8.959,6.929,14.475,7.706c-0.562-0.784-0.813-1.32-0.856-1.416
		L161.079,275.27z"/>
	
		<line clip-path="url(#SVGID_2_)" fill="none" stroke="#FFFFFF" stroke-width="0" stroke-linecap="round" stroke-linejoin="round" x1="185.735" y1="76.134" x2="185.735" y2="76.134"/>
	<path clip-path="url(#SVGID_2_)" fill="#FFFFFF" d="M138.321,91.404c23.795-16.885,47.123-15.293,47.415-15.271
		c0.001,0,0.003,0.001,0.003,0.001l0.183-2.269l-0.222-2.714c0.039-0.004,0.12-0.009,0.223-0.016
		c-2.669-0.175-26.51-1.16-51.143,16.66c0.667,0.404,1.294,0.875,1.857,1.423C137.315,89.88,137.874,90.617,138.321,91.404"/>
	<path clip-path="url(#SVGID_2_)" fill="#FFFFFF" d="M185.921,285.231l-0.058-1.905c-10.745,0.321-16.939-1.926-20.25-3.871
		c-0.374-0.221-0.707-0.441-1.027-0.66c-2.642-1.813-3.499-3.504-3.508-3.524l-4.556,2.059c0.042,0.096,0.293,0.632,0.855,1.416
		c2.143,2.984,8.873,9.612,26.42,9.612c0.69,0,1.399-0.012,2.123-0.032c-0.032,0-0.062,0-0.094-0.001L185.921,285.231z"/>
	<path clip-path="url(#SVGID_2_)" fill="#FFFFFF" d="M116.782,235.138c-0.145-4.624-0.499-10.339-1.3-16.077
		c-0.236-1.685-0.653-3.691-1.135-6.019c-3.246-15.658-10.001-48.239,16.064-96.436l7.701-16.238l1.402-3.738l0.012-0.411
		c0.051-1.706-0.373-3.35-1.205-4.815c-0.447-0.787-1.006-1.524-1.685-2.186c-0.563-0.549-1.19-1.019-1.857-1.423
		c-1.511-0.916-3.25-1.457-5.082-1.541c-2.179-0.333-13.565-0.686-35.115,21.596c-1.285,1.243-31.596,30.901-44.143,69.187
		c-0.151,0.426-3.656,10.616-0.208,27.045c5.666,26.991,25.686,49.719,41.441,63.995c0.244,0.23,5.345,4.996,11.553,4.995
		c0.86,0,1.742-0.092,2.635-0.3c3.05-0.356,8.728-2.681,9.629-9.176c0.962-6.919,1.3-17.747,1.319-18.354
		c0.004-0.125,0.025-0.728,0.042-1.701c-1.442-2.105-2.765-4.259-3.887-6.431L116.782,235.138z M111.811,245.062l-0.001,0.02
		c-0.003,0.109-0.341,11.124-1.273,17.829c-0.592,4.268-4.869,4.854-5.336,4.904l-0.374,0.063c-4.725,1.188-9.668-3.386-9.755-3.467
		c-27.443-24.867-36.826-46.88-39.865-60.969c-3.272-15.172-0.085-24.648-0.036-24.791c12.172-37.14,42.584-66.914,42.947-67.267
		c18.569-19.199,28.525-20.212,30.435-20.212c0.226,0,0.339,0.015,0.341,0.015l0.467,0.058c1.457,0.043,2.801,0.594,3.785,1.554
		c0.833,0.812,1.314,1.832,1.377,2.906l-0.975,2.619l-7.568,15.962c-26.898,49.773-19.894,83.539-16.529,99.771
		c0.464,2.241,0.866,4.176,1.079,5.697C112.265,232.179,111.815,244.935,111.811,245.062"/>
	<path clip-path="url(#SVGID_2_)" fill="#FFFFFF" d="M135.689,257.55c-5.997-5.742-13.889-14.229-18.284-22.733l-0.623,0.322
		l-3.819,1.973c1.122,2.171,2.445,4.326,3.887,6.431c9.077,13.254,23.046,24.509,23.727,25.053l0.159-0.198l2.964-3.705
		C143.621,264.627,140.188,261.861,135.689,257.55"/>
	<path clip-path="url(#SVGID_2_)" fill="#FFFFFF" d="M223.487,183.467c5.152,0,9.347-4.195,9.347-9.351
		c0-5.155-4.194-9.349-9.347-9.349c-5.156,0-9.352,4.194-9.352,9.349C214.136,179.271,218.331,183.467,223.487,183.467"/>
	<path clip-path="url(#SVGID_2_)" fill="#FFFFFF" d="M223.487,184.467c5.704,0,10.347-4.644,10.347-10.351
		c0-5.706-4.643-10.349-10.347-10.349c-5.707,0-10.352,4.643-10.352,10.349C213.136,179.823,217.78,184.467,223.487,184.467
		 M223.487,164.767c5.152,0,9.347,4.194,9.347,9.349c0,5.156-4.194,9.351-9.347,9.351c-5.156,0-9.352-4.195-9.352-9.351
		C214.136,168.961,218.331,164.767,223.487,164.767"/>
	<path clip-path="url(#SVGID_2_)" fill="#FFFFFF" d="M225.362,223.538c-4.02-4.639-8.174-9.436-12.108-18.535
		c-3.105-7.174-5.457-11.894-7.348-15.686c-4.549-9.123-5.771-11.575-6.968-27.823c-1.677-22.785-10.243-25.229-12.732-25.45
		c-0.119-0.011-0.219-0.016-0.31-0.018c-0.107-0.003-0.198-0.003-0.26,0v0.016l0.192,4.98c0,0.001-0.043,0.007-0.118,0.001
		c0.006,0,0.083,0.009,0.211,0.042c1.149,0.296,6.696,2.661,8.031,20.796c1.268,17.23,2.834,20.369,7.478,29.687
		c1.864,3.738,4.184,8.39,7.233,15.44c4.242,9.807,8.851,15.128,12.919,19.823c1.447,1.671,2.813,3.249,4.105,4.953
		c1.534,2.021,2.74,3.932,3.797,6.011l0.058-0.029c-0.28-0.551-0.572-1.094-0.895-1.621l4.226-2.578
		c-0.933-1.619-1.972-3.184-3.201-4.805C228.283,226.909,226.864,225.271,225.362,223.538"/>
	<path clip-path="url(#SVGID_2_)" fill="#FFFFFF" d="M236.155,257.55c0.88-3.432,1.23-7.031,0.97-10.614
		c-0.357-4.851-1.813-9.489-4.208-13.416l-0.043,0.025l-4.226,2.579c0.322,0.528,0.614,1.071,0.895,1.621
		c1.464,2.894,2.341,6.096,2.595,9.555c0.54,7.41-2.088,15.201-6.86,20.334c-2.695,2.9-7.369,6.357-14.318,6.357
		c-8.154,0-14.786-3.037-19.23-8.84c-0.025-0.034-2.621-3.287-3.266-7.696l-2.541,0.372l-2.407,0.353
		c0.423,2.887,1.458,5.355,2.406,7.129c0.964,1.805,1.839,2.887,1.884,2.939c4.609,6.022,11.425,9.689,19.453,10.545
		c2.642-1.812,3.499-3.504,3.507-3.522l4.558,2.057c-0.042,0.097-0.294,0.633-0.855,1.415c5.515-0.776,10.468-3.396,14.473-7.704
		c0.774-0.832,1.494-1.717,2.168-2.642l-2.964-3.705C228.223,264.627,231.656,261.86,236.155,257.55"/>
	<path clip-path="url(#SVGID_2_)" fill="#FFFFFF" d="M185.921,73.865l0.187,2.269c0.237-0.02,23.517-1.694,47.416,15.27
		c0.446-0.787,1.007-1.524,1.686-2.185c0.563-0.549,1.189-1.019,1.856-1.423c-24.633-17.82-48.469-16.836-51.145-16.661
		c-0.102,0.007-0.183,0.012-0.222,0.016L185.921,73.865z"/>
	<path clip-path="url(#SVGID_2_)" fill="#FFFFFF" d="M210.766,275.27c-0.01,0.021-0.865,1.711-3.509,3.523
		c-0.319,0.22-0.652,0.44-1.026,0.661c-3.312,1.946-9.505,4.2-20.251,3.871l-0.059,1.905l-0.094,3.093
		c0.032,0.001,0.063,0.001,0.094,0.001c0.725,0.021,1.432,0.032,2.122,0.032c17.548,0,24.281-6.628,26.423-9.613
		c0.563-0.783,0.814-1.319,0.856-1.415L210.766,275.27z"/>
	<path clip-path="url(#SVGID_2_)" fill="#FFFFFF" d="M321.425,177.094c-12.566-38.343-42.878-68-44.104-69.186
		c-21.601-22.332-32.982-21.982-35.173-21.654c-1.833,0.085-3.572,0.625-5.083,1.542c-0.667,0.404-1.293,0.874-1.856,1.423
		c-0.679,0.661-1.239,1.398-1.686,2.185c-0.833,1.464-1.258,3.109-1.206,4.815l0.013,0.412l1.318,3.539l7.725,16.318l0.059,0.118
		c26.068,48.199,19.313,80.781,16.065,96.439c-0.483,2.324-0.899,4.333-1.135,6.018c-0.803,5.738-1.155,11.451-1.301,16.075
		l3.818,1.973c-1.122,2.172-2.444,4.325-3.885,6.432c0.016,0.969,0.037,1.568,0.042,1.698c0.018,0.587,0.355,11.431,1.318,18.355
		c0.899,6.497,6.578,8.82,9.629,9.177c0.893,0.208,1.773,0.3,2.636,0.299c6.205,0,11.302-4.758,11.51-4.956
		c28.621-25.934,38.356-49.136,41.483-64.034C325.062,187.653,321.556,177.463,321.425,177.094 M276.731,264.45
		c-0.05,0.047-5.021,4.602-9.715,3.43l-0.355-0.063c-0.486-0.053-4.762-0.638-5.354-4.907c-0.931-6.699-1.27-17.719-1.272-17.828
		l-0.001-0.02c-0.005-0.127-0.456-12.883,1.278-25.305c0.215-1.523,0.615-3.457,1.079-5.697
		c3.366-16.232,10.371-49.998-16.529-99.774l-7.567-15.962l-0.975-2.619c0.063-1.073,0.544-2.093,1.377-2.905
		c0.984-0.96,2.33-1.512,3.786-1.555l0.158,0.008l0.231-0.051c0.103-0.014,10.087-1.288,30.912,20.24
		c0.305,0.296,30.703,30.03,42.908,67.266C316.826,179.083,329.373,216.75,276.731,264.45"/>
	<path clip-path="url(#SVGID_2_)" fill="#FFFFFF" d="M255.063,235.138l-0.623-0.321c-4.396,8.506-12.287,16.989-18.284,22.733
		c-4.499,4.31-7.933,7.077-8.011,7.142l2.964,3.705l0.159,0.198c0.681-0.544,14.649-11.8,23.728-25.054
		c1.441-2.104,2.763-4.258,3.885-6.43L255.063,235.138z"/>
</g>
</svg>
